<svg width="29" height="29" viewBox="0 0 29 29" fill="none" xmlns="http://www.w3.org/2000/svg">
<path d="M14.5 0L14.5028 14.4857L20.0489 1.10374L14.5081 14.488L24.753 4.24696L14.512 14.4919L27.8962 8.95106L14.5143 14.4972L29 14.5L14.5143 14.5028L27.8962 20.0489L14.512 14.5081L24.753 24.753L14.5081 14.512L20.0489 27.8962L14.5028 14.5143L14.5 29L14.4972 14.5143L8.95106 27.8962L14.4919 14.512L4.24696 24.753L14.488 14.5081L1.10374 20.0489L14.4857 14.5028L0 14.5L14.4857 14.4972L1.10374 8.95106L14.488 14.4919L4.24696 4.24696L14.4919 14.488L8.95106 1.10374L14.4972 14.4857L14.5 0Z" stroke="black"/>
</svg>
