<svg width="25" height="26" viewBox="0 0 25 26" fill="none" xmlns="http://www.w3.org/2000/svg">
<g clip-path="url(#clip0_784_4514)">
<path d="M20.8559 25.5H4.14414C1.85537 25.5 0 23.6446 0 21.3559V4.64414C0 2.35537 1.85537 0.5 4.14414 0.5H20.8559C23.1446 0.5 25 2.35537 25 4.64414V21.3559C25 23.6446 23.1446 25.5 20.8559 25.5Z" fill="#00AEEF"/>
<path d="M12.7949 11.0258C11.4942 11.0258 10.3624 11.7574 9.79233 12.8315C9.22212 11.7574 8.09087 11.0258 6.78931 11.0258C6.05354 11.025 5.3375 11.2636 4.74927 11.7056V8.84199C4.74599 8.66398 4.67289 8.49438 4.54573 8.36976C4.41857 8.24513 4.24753 8.17547 4.06948 8.17578C3.69819 8.17578 3.39937 8.47197 3.39087 8.84199V14.4809H3.39155C3.42153 16.3323 4.93032 17.8238 6.78931 17.8238C8.09087 17.8238 9.22212 17.0915 9.79233 16.0185C10.3624 17.0915 11.4942 17.8238 12.7949 17.8238C14.6714 17.8238 16.1937 16.3022 16.1937 14.4241C16.1937 12.5471 14.6714 11.0258 12.7949 11.0258ZM6.78931 16.463C5.66323 16.463 4.74927 15.5508 4.74927 14.4246C4.74927 13.2988 5.66323 12.3865 6.78931 12.3865C7.91528 12.3865 8.82729 13.2988 8.82729 14.4241C8.82729 15.5505 7.91528 16.463 6.78931 16.463ZM12.7949 16.463C11.6685 16.463 10.7552 15.5505 10.7552 14.4241C10.7552 13.2988 11.6685 12.3865 12.7949 12.3865C13.9208 12.3865 14.8335 13.2988 14.8335 14.4241C14.8335 15.5505 13.9208 16.463 12.7949 16.463Z" fill="white"/>
<path d="M21.4678 16.6859L19.6203 14.4197L21.47 12.1492C21.7039 11.8497 21.6368 11.4315 21.3139 11.2093C20.9907 10.9852 20.5372 11.0426 20.2871 11.3332V11.3328L18.6957 13.2832L17.1057 11.3328V11.3332C16.8582 11.0426 16.4018 10.9852 16.0796 11.2093C15.7573 11.4317 15.6899 11.8497 15.925 12.1492H15.9243L17.7708 14.4197L15.9243 16.6859H15.925C15.6899 16.9863 15.7573 17.4032 16.0796 17.6264C16.4018 17.8495 16.8582 17.7927 17.1057 17.5017L18.6957 15.554L20.2848 17.5017C20.5352 17.7927 20.9886 17.8495 21.3118 17.6264C21.6347 17.4032 21.7021 16.9863 21.4678 16.6859Z" fill="white"/>
</g>
<defs>
<clipPath id="clip0_784_4514">
<rect width="25" height="25" fill="white" transform="translate(0 0.5)"/>
</clipPath>
</defs>
</svg>
