<svg width="43" height="42" viewBox="0 0 43 42" fill="none" xmlns="http://www.w3.org/2000/svg">
<path d="M21.5 0L21.5041 20.9793L29.5364 1.59852L21.5117 20.9826L36.3492 6.15076L21.5174 20.9883L40.9015 12.9636L21.5207 20.9959L42.5 21L21.5207 21.0041L40.9015 29.0364L21.5174 21.0117L36.3492 35.8492L21.5117 21.0174L29.5364 40.4015L21.5041 21.0207L21.5 42L21.4959 21.0207L13.4636 40.4015L21.4883 21.0174L6.65076 35.8492L21.4826 21.0117L2.09852 29.0364L21.4793 21.0041L0.5 21L21.4793 20.9959L2.09852 12.9636L21.4826 20.9883L6.65076 6.15076L21.4883 20.9826L13.4636 1.59852L21.4959 20.9793L21.5 0Z" stroke="#FF722D"/>
</svg>
