<svg width="20" height="20" viewBox="0 0 20 20" fill="none" xmlns="http://www.w3.org/2000/svg">
<path d="M10 0.24707C4.47788 0.24707 0 4.72417 0 10.2471C0 14.6655 2.86531 18.4139 6.83867 19.7362C7.33841 19.8288 7.52194 19.5193 7.52194 19.2551C7.52194 19.0167 7.5126 18.2289 7.50837 17.3933C4.72627 17.9982 4.13923 16.2134 4.13923 16.2134C3.68434 15.0575 3.02892 14.7503 3.02892 14.7503C2.12165 14.1296 3.09731 14.1423 3.09731 14.1423C4.10151 14.2129 4.63027 15.1728 4.63027 15.1728C5.52216 16.7016 6.96964 16.2596 7.54029 16.0042C7.63001 15.3578 7.88922 14.9167 8.17517 14.667C5.95407 14.414 3.61909 13.5566 3.61909 9.72486C3.61909 8.63313 4.00974 7.74101 4.64949 7.04072C4.54565 6.78881 4.20339 5.77174 4.74635 4.3943C4.74635 4.3943 5.58608 4.12553 7.49708 5.41936C8.2947 5.19772 9.1502 5.08667 10 5.0829C10.8499 5.08667 11.706 5.19772 12.5052 5.41936C14.4139 4.12553 15.2525 4.3943 15.2525 4.3943C15.7968 5.77174 15.4544 6.78881 15.3505 7.04072C15.9917 7.74101 16.3797 8.63306 16.3797 9.72486C16.3797 13.5657 14.0403 14.4114 11.8136 14.659C12.1722 14.9693 12.4918 15.5779 12.4918 16.5108C12.4918 17.8488 12.4802 18.9257 12.4802 19.2551C12.4802 19.5212 12.6602 19.8331 13.1672 19.7349C17.1383 18.4111 20 14.664 20 10.2471C20 4.72417 15.5228 0.24707 10 0.24707Z" fill="#161614"/>
<path d="M3.74538 14.4918C3.72342 14.5415 3.64515 14.5564 3.57401 14.5223C3.50146 14.4897 3.46068 14.422 3.48421 14.3721C3.50578 14.3209 3.58405 14.3067 3.65644 14.341C3.72914 14.3736 3.77055 14.442 3.74538 14.4918ZM4.23728 14.9307C4.1896 14.975 4.09635 14.9544 4.03305 14.8845C3.96764 14.8148 3.95541 14.7216 4.0038 14.6767C4.05297 14.6325 4.1434 14.6532 4.20897 14.723C4.27438 14.7935 4.28708 14.8861 4.2372 14.9308M4.57476 15.4923C4.51343 15.5349 4.4132 15.4949 4.35132 15.406C4.29006 15.3171 4.29006 15.2105 4.35265 15.1677C4.41477 15.125 4.51343 15.1634 4.57617 15.2517C4.63735 15.3421 4.63735 15.4487 4.57468 15.4924M5.14541 16.1427C5.09059 16.2031 4.97388 16.1869 4.8884 16.1044C4.80103 16.0238 4.77664 15.9094 4.83161 15.8489C4.88706 15.7883 5.00447 15.8054 5.09059 15.8872C5.17741 15.9676 5.20384 16.0829 5.14541 16.1427ZM5.88295 16.3623C5.85887 16.4406 5.74641 16.4762 5.63316 16.4429C5.52006 16.4086 5.44603 16.3169 5.46885 16.2377C5.49238 16.1589 5.60531 16.1218 5.71943 16.1574C5.83237 16.1915 5.90648 16.2826 5.88295 16.3623ZM6.72245 16.4554C6.72528 16.5379 6.6292 16.6063 6.5103 16.6078C6.3907 16.6104 6.294 16.5436 6.29274 16.4625C6.29274 16.3792 6.38662 16.3115 6.50615 16.3095C6.62504 16.3071 6.72245 16.3734 6.72245 16.4554ZM7.54705 16.4238C7.56133 16.5042 7.47866 16.5869 7.36063 16.6089C7.24455 16.63 7.1371 16.5804 7.12228 16.5006C7.10785 16.4181 7.19208 16.3355 7.30792 16.3141C7.42619 16.2936 7.53199 16.342 7.54705 16.4238Z" fill="#161614"/>
</svg>
