<svg width="20" height="18" viewBox="0 0 20 18" fill="none" xmlns="http://www.w3.org/2000/svg">
<g clip-path="url(#clip0_784_4627)">
<path d="M13.6696 12.1924H6.35244L3.21912 17.6655C3.59606 17.8572 4.02412 17.9801 4.30097 17.9801C7.17938 17.9801 13.0538 17.9375 15.9699 17.9375C16.2697 17.9375 16.5504 17.8353 16.8021 17.6751L13.6696 12.1924Z" fill="#4185F3"/>
<path d="M3.21918 17.6655L6.35251 12.1924H0.00322921C3.47658e-05 12.5727 0.135266 12.9207 0.347165 13.3177C0.937498 14.4221 1.93629 16.1876 2.52301 17.1097C2.66761 17.3369 3.24176 17.677 3.21918 17.6655Z" fill="#1767D1"/>
<path d="M13.6697 12.1918L16.8032 17.6737C17.2093 17.4156 17.5403 17.0067 17.7552 16.6302C18.2403 15.7811 19.0606 14.3673 19.6265 13.41C19.8895 12.9649 19.9917 12.5652 19.9853 12.1914L13.6697 12.1918Z" fill="#E94235"/>
<path d="M6.35314 12.1919L10.008 5.83798L6.74159 0.39209C6.38828 0.624433 6.08609 0.939831 5.94894 1.18005C4.52315 3.68067 1.65092 8.80562 0.206601 11.3386C0.0586046 11.5978 -0.0122539 11.8938 0.00236984 12.1919H6.35314Z" fill="#30A753"/>
<path d="M13.6695 12.1921L10.0081 5.83815L13.1848 0.398438C13.5381 0.630993 13.9259 0.940003 14.0631 1.18044C15.4889 3.68084 18.3611 8.80579 19.8061 11.3388C19.9551 11.5992 20.0001 11.894 19.9856 12.1921H13.6695Z" fill="#F9BC00"/>
<path d="M6.74109 0.393958L10.0079 5.839L13.1847 0.399282C12.8568 0.207616 12.3923 0.0941063 11.9425 0.0798377C10.6911 0.038097 8.66244 0.0212729 7.57058 0.0687637C7.30139 0.0804766 6.7445 0.391616 6.74109 0.393958Z" fill="#0F8038"/>
</g>
<defs>
<clipPath id="clip0_784_4627">
<rect width="20" height="17.976" fill="white" transform="translate(0 0.012207)"/>
</clipPath>
</defs>
</svg>
