<svg width="20" height="22" viewBox="0 0 20 22" fill="none" xmlns="http://www.w3.org/2000/svg">
<g clip-path="url(#clip0_784_4616)">
<path d="M19.7552 10.4142L10.7506 1.40963L9.87808 0.537109L3.09965 7.3155L3.74913e-05 10.4142C-0.154787 10.5698 -0.241699 10.7804 -0.241699 10.9999C-0.241699 11.2194 -0.154787 11.43 3.74913e-05 11.5856L6.19273 17.7783L9.87808 21.4627L16.6556 14.6843L16.7611 14.5797L19.7552 11.5903C19.8328 11.5133 19.8944 11.4217 19.9364 11.3207C19.9784 11.2198 20 11.1116 20 11.0022C20 10.8929 19.9784 10.7847 19.9364 10.6837C19.8944 10.5828 19.8328 10.4912 19.7552 10.4142ZM9.87808 14.0939L6.78407 10.9999L9.87808 7.9059L12.9712 10.9999L9.87808 14.0939Z" fill="#2684FF"/>
<path d="M9.87801 7.90607C8.90495 6.93324 8.35641 5.61486 8.35221 4.23891C8.348 2.86296 8.88848 1.54126 9.85559 0.5625L3.08557 7.32968L6.76999 11.0141L9.87801 7.90607Z" fill="url(#paint0_linear_784_4616)"/>
<path d="M12.9795 10.9917L9.87805 14.0941C10.8548 15.0711 11.4035 16.3961 11.4035 17.7776C11.4035 19.1591 10.8548 20.484 9.87805 21.461L16.6668 14.6761L12.9795 10.9917Z" fill="url(#paint1_linear_784_4616)"/>
</g>
<defs>
<linearGradient id="paint0_linear_784_4616" x1="9.32404" y1="4.77564" x2="5.00347" y2="9.0953" gradientUnits="userSpaceOnUse">
<stop offset="0.18" stop-color="#0052CC"/>
<stop offset="1" stop-color="#2684FF"/>
</linearGradient>
<linearGradient id="paint1_linear_784_4616" x1="10.4685" y1="17.1872" x2="14.7806" y2="12.8759" gradientUnits="userSpaceOnUse">
<stop offset="0.18" stop-color="#0052CC"/>
<stop offset="1" stop-color="#2684FF"/>
</linearGradient>
<clipPath id="clip0_784_4616">
<rect width="20" height="21.1774" fill="white" transform="translate(0 0.411133)"/>
</clipPath>
</defs>
</svg>
