<svg width="22" height="22" viewBox="0 0 22 22" fill="none" xmlns="http://www.w3.org/2000/svg">
<path d="M12.19 7.68803C12.8399 7.99828 13.4057 8.45996 13.8401 9.03427C14.2745 9.60857 14.5648 10.2787 14.6865 10.9885C14.8081 11.6982 14.7577 12.4268 14.5394 13.113C14.3212 13.7992 13.9414 14.423 13.432 14.932L8.93203 19.432C8.08811 20.2759 6.94351 20.7501 5.75003 20.7501C4.55655 20.7501 3.41195 20.2759 2.56803 19.432C1.72411 18.5881 1.25 17.4435 1.25 16.25C1.25 15.0565 1.72411 13.9119 2.56803 13.068L4.32503 11.311M17.675 10.689L19.432 8.93203C20.2759 8.08811 20.7501 6.94351 20.7501 5.75003C20.7501 4.55655 20.2759 3.41195 19.432 2.56803C18.5881 1.72411 17.4435 1.25 16.25 1.25C15.0565 1.25 13.9119 1.72411 13.068 2.56803L8.56803 7.06803C8.05866 7.57703 7.67889 8.20084 7.46061 8.88705C7.24233 9.57326 7.19191 10.3018 7.3136 11.0116C7.43528 11.7213 7.72552 12.3915 8.15992 12.9658C8.59432 13.5401 9.1602 14.0018 9.81003 14.312" stroke="#7A7A7A" stroke-width="1.5" stroke-linecap="round" stroke-linejoin="round"/>
</svg>
