<svg width="16" height="18" viewBox="0 0 16 18" fill="none" xmlns="http://www.w3.org/2000/svg">
<path d="M10.125 6.5V3.375C10.125 2.87772 9.92746 2.40081 9.57582 2.04917C9.22419 1.69754 8.74728 1.5 8.25 1.5H3.25C2.75272 1.5 2.27581 1.69754 1.92417 2.04917C1.57254 2.40081 1.375 2.87772 1.375 3.375V14.625C1.375 15.1223 1.57254 15.5992 1.92417 15.9508C2.27581 16.3025 2.75272 16.5 3.25 16.5H8.25C8.74728 16.5 9.22419 16.3025 9.57582 15.9508C9.92746 15.5992 10.125 15.1223 10.125 14.625V11.5M12.625 11.5L15.125 9M15.125 9L12.625 6.5M15.125 9H4.5" stroke="black" stroke-width="1.5" stroke-linecap="round" stroke-linejoin="round"/>
</svg>
