<svg width="24" height="24" viewBox="0 0 24 24" fill="none" xmlns="http://www.w3.org/2000/svg">
<path d="M3.69442 3.3564L14.6785 2.5451C16.0277 2.42937 16.3743 2.50738 17.2227 3.12415L20.729 5.59418C21.3073 6.01899 21.4998 6.13472 21.4998 6.59724V20.144C21.4998 20.993 21.1915 21.4953 20.1122 21.5719L7.3569 22.3445C6.54698 22.3828 6.16128 22.2671 5.73707 21.7265L3.15508 18.369C2.69196 17.751 2.5 17.2885 2.5 16.7478V4.70626C2.5 4.01207 2.80828 3.43322 3.69442 3.3564Z" fill="white"/>
<path fill-rule="evenodd" clip-rule="evenodd" d="M14.6785 2.5453L3.69442 3.3566C2.80828 3.43322 2.5 4.01227 2.5 4.70626V16.7478C2.5 17.2883 2.69196 17.7508 3.15508 18.369L5.73707 21.7263C6.16128 22.2669 6.54698 22.3828 7.3569 22.3443L20.1124 21.5721C21.1909 21.4953 21.5 20.993 21.5 20.1442V6.59744C21.5 6.15874 21.3267 6.03229 20.8165 5.6579L17.2227 3.12415C16.3745 2.50738 16.0277 2.42937 14.6785 2.5451V2.5453ZM7.64533 6.37571C6.60376 6.44578 6.36753 6.46166 5.77598 5.98068L4.27208 4.78447C4.11923 4.62963 4.19605 4.43648 4.58116 4.39797L15.1404 3.62637C16.0271 3.54895 16.4889 3.85803 16.8357 4.128L18.6466 5.44014C18.7241 5.47925 18.9166 5.71011 18.685 5.71011L7.78031 6.36658L7.64533 6.37571ZM6.43106 20.0285V8.52833C6.43106 8.0261 6.5853 7.79445 7.04703 7.75554L19.5717 7.02225C19.9965 6.98394 20.1885 7.25391 20.1885 7.75534V19.1789C20.1885 19.6811 20.111 20.1059 19.4177 20.1442L7.43233 20.839C6.73894 20.8773 6.43125 20.6465 6.43125 20.0285H6.43106ZM18.2621 9.1449C18.339 9.49229 18.2621 9.83967 17.9147 9.87938L17.3371 9.99392V18.4847C16.8355 18.7547 16.3737 18.9089 15.9878 18.9089C15.3711 18.9089 15.217 18.7158 14.7551 18.1373L10.9775 12.194V17.9442L12.1725 18.2147C12.1725 18.2147 12.1725 18.9095 11.2084 18.9095L8.55033 19.0637C8.47291 18.9089 8.55033 18.5232 8.8197 18.4464L9.51389 18.2538V10.651L8.55053 10.573C8.47311 10.2256 8.66566 9.72394 9.2056 9.68504L12.0576 9.49308L15.988 15.5132V10.1873L14.9862 10.0721C14.9087 9.64672 15.217 9.33765 15.6021 9.29993L18.2621 9.1449Z" fill="black"/>
</svg>
