<svg width="25" height="24" viewBox="0 0 25 24" fill="none" xmlns="http://www.w3.org/2000/svg">
<path d="M4.36117 3.3564L15.3452 2.5451C16.6945 2.42937 17.0411 2.50738 17.8895 3.12415L21.3957 5.59418C21.974 6.01899 22.1666 6.13472 22.1666 6.59724V20.144C22.1666 20.993 21.8583 21.4953 20.779 21.5719L8.02364 22.3445C7.21373 22.3828 6.82803 22.2671 6.40382 21.7265L3.82182 18.369C3.35871 17.751 3.16675 17.2885 3.16675 16.7478V4.70626C3.16675 4.01207 3.47503 3.43322 4.36117 3.3564Z" fill="white"/>
<path fill-rule="evenodd" clip-rule="evenodd" d="M15.3452 2.5453L4.36117 3.3566C3.47503 3.43322 3.16675 4.01227 3.16675 4.70626V16.7478C3.16675 17.2883 3.35871 17.7508 3.82182 18.369L6.40382 21.7263C6.82803 22.2669 7.21373 22.3828 8.02364 22.3443L20.7792 21.5721C21.8577 21.4953 22.1667 20.993 22.1667 20.1442V6.59744C22.1667 6.15874 21.9935 6.03229 21.4833 5.6579L17.8895 3.12415C17.0413 2.50738 16.6945 2.42937 15.3452 2.5451V2.5453ZM8.31208 6.37571C7.27051 6.44578 7.03428 6.46166 6.44273 5.98068L4.93883 4.78447C4.78598 4.62963 4.8628 4.43648 5.24791 4.39797L15.8071 3.62637C16.6939 3.54895 17.1556 3.85803 17.5024 4.128L19.3134 5.44014C19.3908 5.47925 19.5834 5.71011 19.3517 5.71011L8.44706 6.36658L8.31208 6.37571ZM7.0978 20.0285V8.52833C7.0978 8.0261 7.25204 7.79445 7.71377 7.75554L20.2384 7.02225C20.6632 6.98394 20.8552 7.25391 20.8552 7.75534V19.1789C20.8552 19.6811 20.7778 20.1059 20.0844 20.1442L8.09908 20.839C7.40569 20.8773 7.098 20.6465 7.098 20.0285H7.0978ZM18.9289 9.1449C19.0057 9.49229 18.9289 9.83967 18.5815 9.87938L18.0038 9.99392V18.4847C17.5022 18.7547 17.0405 18.9089 16.6546 18.9089C16.0378 18.9089 15.8838 18.7158 15.4218 18.1373L11.6442 12.194V17.9442L12.8393 18.2147C12.8393 18.2147 12.8393 18.9095 11.8751 18.9095L9.21708 19.0637C9.13966 18.9089 9.21708 18.5232 9.48645 18.4464L10.1806 18.2538V10.651L9.21727 10.573C9.13986 10.2256 9.33241 9.72394 9.87235 9.68504L12.7243 9.49308L16.6548 15.5132V10.1873L15.6529 10.0721C15.5755 9.64672 15.8838 9.33765 16.2689 9.29993L18.9289 9.1449Z" fill="black"/>
</svg>
