<svg width="16" height="17" viewBox="0 0 16 17" fill="none" xmlns="http://www.w3.org/2000/svg">
<path fill-rule="evenodd" clip-rule="evenodd" d="M10.2321 0.121244L1.07873 0.79733C0.340277 0.861183 0.083374 1.34372 0.083374 1.92204V11.9566C0.083374 12.4071 0.243338 12.7925 0.629271 13.3076L2.78093 16.1054C3.13444 16.5559 3.45586 16.6525 4.13079 16.6204L14.7604 15.9769C15.6591 15.9129 15.9167 15.4944 15.9167 14.787V3.49803C15.9167 3.13245 15.7723 3.02707 15.3472 2.71508L12.3523 0.603619C11.6455 0.0896486 11.3565 0.0246373 10.2321 0.121079V0.121244ZM4.37115 3.31325C3.50317 3.37165 3.30632 3.38488 2.81336 2.98406L1.56011 1.98722C1.43273 1.85819 1.49675 1.69723 1.81767 1.66514L10.617 1.02214C11.356 0.957625 11.7408 1.21519 12.0298 1.44016L13.5389 2.53361C13.6034 2.5662 13.7639 2.75859 13.5708 2.75859L4.48364 3.30564L4.37115 3.31325ZM3.35925 14.6906V5.1071C3.35925 4.68858 3.48779 4.49553 3.87256 4.46311L14.3098 3.85204C14.6638 3.82011 14.8238 4.04509 14.8238 4.46294V13.9826C14.8238 14.4011 14.7592 14.7551 14.1814 14.787L4.19365 15.366C3.61582 15.3979 3.35942 15.2055 3.35942 14.6906H3.35925ZM13.2185 5.62091C13.2825 5.9104 13.2185 6.19989 12.929 6.23298L12.4476 6.32842V13.4041C12.0296 13.6291 11.6448 13.7576 11.3232 13.7576C10.8093 13.7576 10.6809 13.5966 10.296 13.1146L7.14794 8.16181V12.9536L8.14379 13.1791C8.14379 13.1791 8.14379 13.7581 7.34033 13.7581L5.12531 13.8866C5.0608 13.7576 5.12531 13.4362 5.34979 13.3721L5.92828 13.2117V6.87598L5.12548 6.81096C5.06096 6.52147 5.22142 6.10345 5.67138 6.07103L8.04801 5.91106L11.3234 10.9279V6.48955L10.4885 6.3936C10.424 6.0391 10.6809 5.78154 11.0018 5.7501L13.2185 5.62091Z" fill="black"/>
</svg>
