<svg width="24" height="24" viewBox="0 0 24 24" fill="none" xmlns="http://www.w3.org/2000/svg">
<path d="M14.6858 2.64408L14.6858 2.64409L14.687 2.64399C15.3621 2.58608 15.7719 2.57841 16.1164 2.65672C16.4576 2.73426 16.743 2.89808 17.1644 3.20443L17.1644 3.20444L17.1656 3.20529L20.6702 5.67417C20.6705 5.67436 20.6708 5.67456 20.671 5.67475C20.6998 5.69589 20.7275 5.71617 20.7541 5.73568C21.0001 5.91591 21.156 6.03015 21.256 6.14633C21.3576 6.26428 21.4005 6.38407 21.4005 6.59724V20.144C21.4005 20.5594 21.3246 20.8677 21.1362 21.0821C20.9487 21.2955 20.6325 21.4354 20.1058 21.4728C20.1056 21.4729 20.1054 21.4729 20.1052 21.4729L7.35221 22.2453C7.35199 22.2454 7.35176 22.2454 7.35154 22.2454C6.95029 22.2643 6.66785 22.244 6.43645 22.1594C6.20843 22.076 6.02003 21.9262 5.81543 21.6656C5.81533 21.6655 5.81524 21.6654 5.81515 21.6653L3.2345 18.3094C3.23438 18.3093 3.23426 18.3091 3.23414 18.309C2.77824 17.7005 2.59925 17.2588 2.59925 16.7478V4.70626C2.59925 4.37236 2.67356 4.07856 2.8432 3.86082C3.01074 3.64579 3.28139 3.49196 3.70238 3.45534C3.70258 3.45532 3.70279 3.4553 3.703 3.45529L14.6858 2.64408Z" fill="white" stroke="white" stroke-width="0.198508"/>
<path fill-rule="evenodd" clip-rule="evenodd" d="M14.6785 2.5453L3.69442 3.3566C2.80828 3.43322 2.5 4.01227 2.5 4.70626V16.7478C2.5 17.2883 2.69196 17.7508 3.15508 18.369L5.73707 21.7263C6.16128 22.2669 6.54698 22.3828 7.3569 22.3443L20.1124 21.5721C21.1909 21.4953 21.5 20.993 21.5 20.1442V6.59744C21.5 6.15874 21.3267 6.03229 20.8165 5.6579L17.2227 3.12415C16.3745 2.50738 16.0277 2.42937 14.6785 2.5451V2.5453ZM7.64533 6.37571C6.60376 6.44578 6.36753 6.46166 5.77598 5.98068L4.27208 4.78447C4.11923 4.62963 4.19605 4.43648 4.58116 4.39797L15.1404 3.62637C16.0271 3.54895 16.4889 3.85803 16.8357 4.128L18.6466 5.44014C18.7241 5.47925 18.9166 5.71011 18.685 5.71011L7.78031 6.36658L7.64533 6.37571ZM6.43106 20.0285V8.52833C6.43106 8.0261 6.5853 7.79445 7.04703 7.75554L19.5717 7.02225C19.9965 6.98394 20.1885 7.25391 20.1885 7.75534V19.1789C20.1885 19.6811 20.111 20.1059 19.4177 20.1442L7.43233 20.839C6.73894 20.8773 6.43125 20.6465 6.43125 20.0285H6.43106ZM18.2621 9.1449C18.339 9.49229 18.2621 9.83967 17.9147 9.87938L17.3371 9.99392V18.4847C16.8355 18.7547 16.3737 18.9089 15.9878 18.9089C15.3711 18.9089 15.217 18.7158 14.7551 18.1373L10.9775 12.194V17.9442L12.1725 18.2147C12.1725 18.2147 12.1725 18.9095 11.2084 18.9095L8.55033 19.0637C8.47291 18.9089 8.55033 18.5232 8.8197 18.4464L9.51389 18.2538V10.651L8.55053 10.573C8.47311 10.2256 8.66566 9.72394 9.2056 9.68504L12.0576 9.49308L15.988 15.5132V10.1873L14.9862 10.0721C14.9087 9.64672 15.217 9.33765 15.6021 9.29993L18.2621 9.1449Z" fill="black"/>
</svg>
