<svg width="18" height="18" viewBox="0 0 18 18" fill="none" xmlns="http://www.w3.org/2000/svg">
<path d="M6.1875 9C6.1875 9.08288 6.15458 9.16237 6.09597 9.22097C6.03737 9.27958 5.95788 9.3125 5.875 9.3125C5.79212 9.3125 5.71263 9.27958 5.65403 9.22097C5.59542 9.16237 5.5625 9.08288 5.5625 9C5.5625 8.91712 5.59542 8.83763 5.65403 8.77903C5.71263 8.72042 5.79212 8.6875 5.875 8.6875C5.95788 8.6875 6.03737 8.72042 6.09597 8.77903C6.15458 8.83763 6.1875 8.91712 6.1875 9ZM6.1875 9H5.875M9.3125 9C9.3125 9.08288 9.27958 9.16237 9.22097 9.22097C9.16237 9.27958 9.08288 9.3125 9 9.3125C8.91712 9.3125 8.83763 9.27958 8.77903 9.22097C8.72042 9.16237 8.6875 9.08288 8.6875 9C8.6875 8.91712 8.72042 8.83763 8.77903 8.77903C8.83763 8.72042 8.91712 8.6875 9 8.6875C9.08288 8.6875 9.16237 8.72042 9.22097 8.77903C9.27958 8.83763 9.3125 8.91712 9.3125 9ZM9.3125 9H9M12.4375 9C12.4375 9.08288 12.4046 9.16237 12.346 9.22097C12.2874 9.27958 12.2079 9.3125 12.125 9.3125C12.0421 9.3125 11.9626 9.27958 11.904 9.22097C11.8454 9.16237 11.8125 9.08288 11.8125 9C11.8125 8.91712 11.8454 8.83763 11.904 8.77903C11.9626 8.72042 12.0421 8.6875 12.125 8.6875C12.2079 8.6875 12.2874 8.72042 12.346 8.77903C12.4046 8.83763 12.4375 8.91712 12.4375 9ZM12.4375 9H12.125M16.5 9C16.5 9.98491 16.306 10.9602 15.9291 11.8701C15.5522 12.7801 14.9997 13.6069 14.3033 14.3033C13.6069 14.9997 12.7801 15.5522 11.8701 15.9291C10.9602 16.306 9.98491 16.5 9 16.5C8.01509 16.5 7.03982 16.306 6.12987 15.9291C5.21993 15.5522 4.39314 14.9997 3.6967 14.3033C3.00026 13.6069 2.44781 12.7801 2.0709 11.8701C1.69399 10.9602 1.5 9.98491 1.5 9C1.5 7.01088 2.29018 5.10322 3.6967 3.6967C5.10322 2.29018 7.01088 1.5 9 1.5C10.9891 1.5 12.8968 2.29018 14.3033 3.6967C15.7098 5.10322 16.5 7.01088 16.5 9Z" stroke="#D2D1D1" stroke-width="1.5" stroke-linecap="round" stroke-linejoin="round"/>
</svg>
