<svg width="20" height="20" viewBox="0 0 20 20" fill="none" xmlns="http://www.w3.org/2000/svg">
<path d="M7.749 1.67334C6.83251 1.67334 6.08367 2.42218 6.08367 3.33866C6.08367 4.25515 6.83251 5.00399 7.749 5.00399H9.41432V3.33866C9.41432 2.42218 8.67666 1.67334 7.749 1.67334ZM7.749 6.11048H3.32304C2.40655 6.11048 1.65771 6.85932 1.65771 7.7758C1.65771 8.69229 2.40655 9.44113 3.32304 9.44113H7.76017C8.67666 9.44113 9.4255 8.69229 9.4255 7.7758C9.41432 6.85932 8.67666 6.11048 7.749 6.11048Z" fill="#36C5F0"/>
<path d="M18.2887 7.77575C18.2887 6.85926 17.5398 6.11043 16.6233 6.11043C15.7068 6.11043 14.958 6.85926 14.958 7.77575V9.44107H16.6233C17.5398 9.45225 18.2887 8.70341 18.2887 7.77575ZM13.8515 7.77575V3.32743C13.8515 2.41095 13.1027 1.66211 12.1862 1.66211C11.2697 1.66211 10.5209 2.41095 10.5209 3.32743V7.77575C10.5209 8.69224 11.2697 9.44107 12.1862 9.44107C13.1139 9.45225 13.8515 8.70341 13.8515 7.77575Z" fill="#2EB67D"/>
<path d="M12.1862 18.338C13.1027 18.338 13.8515 17.5892 13.8515 16.6727C13.8515 15.7562 13.1027 15.0074 12.1862 15.0074H10.5209V16.6727C10.5209 17.5892 11.2697 18.338 12.1862 18.338ZM12.1862 13.8897H16.6233C17.5398 13.8897 18.2887 13.1409 18.2887 12.2244C18.2887 11.3079 17.5398 10.5591 16.6233 10.5591H12.1862C11.2697 10.5591 10.5209 11.3079 10.5209 12.2244C10.5209 13.1409 11.2697 13.8897 12.1862 13.8897Z" fill="#ECB22E"/>
<path d="M1.65771 12.2244C1.65771 13.1409 2.40655 13.8897 3.32304 13.8897C4.23952 13.8897 4.98836 13.1409 4.98836 12.2244V10.5591H3.32304C2.39537 10.5591 1.65771 11.3079 1.65771 12.2244ZM6.09485 12.2244V16.6727C6.09485 17.5892 6.84369 18.338 7.76017 18.338C8.67666 18.338 9.4255 17.5892 9.4255 16.6727V12.2244C9.4255 11.3079 8.67666 10.5591 7.76017 10.5591C6.83251 10.5591 6.09485 11.3079 6.09485 12.2244Z" fill="#E01E5A"/>
</svg>
