<svg width="10" height="16" viewBox="0 0 10 16" fill="none" xmlns="http://www.w3.org/2000/svg">
<path d="M5 12.5C6.06087 12.5 7.07828 12.0786 7.82843 11.3284C8.57857 10.5783 9 9.56087 9 8.5V7.5M5 12.5C3.93913 12.5 2.92172 12.0786 2.17157 11.3284C1.42143 10.5783 1 9.56087 1 8.5V7.5M5 12.5V15M2.5 15H7.5M5 10.5C4.46957 10.5 3.96086 10.2893 3.58579 9.91421C3.21071 9.53914 3 9.03043 3 8.5V3C3 2.46957 3.21071 1.96086 3.58579 1.58579C3.96086 1.21071 4.46957 1 5 1C5.53043 1 6.03914 1.21071 6.41421 1.58579C6.78929 1.96086 7 2.46957 7 3V8.5C7 9.03043 6.78929 9.53914 6.41421 9.91421C6.03914 10.2893 5.53043 10.5 5 10.5Z" stroke="white" stroke-linecap="round" stroke-linejoin="round"/>
</svg>
