<svg width="25" height="24" viewBox="0 0 25 24" fill="none" xmlns="http://www.w3.org/2000/svg">
<path d="M12.3333 21C14.3283 20.9999 16.2667 20.3372 17.8443 19.116C19.4219 17.8948 20.5492 16.1843 21.0493 14.253M12.3333 21C10.3383 20.9999 8.39979 20.3372 6.82223 19.116C5.24466 17.8948 4.11733 16.1843 3.61726 14.253M12.3333 21C14.8183 21 16.8333 16.97 16.8333 12C16.8333 7.03 14.8183 3 12.3333 3M12.3333 21C9.84826 21 7.83326 16.97 7.83326 12C7.83326 7.03 9.84826 3 12.3333 3M21.0493 14.253C21.2343 13.533 21.3333 12.778 21.3333 12C21.3357 10.4521 20.9371 8.92999 20.1763 7.582M21.0493 14.253C18.3824 15.7314 15.3824 16.5048 12.3333 16.5C9.17126 16.5 6.20026 15.685 3.61726 14.253M3.61726 14.253C3.428 13.517 3.33258 12.76 3.33326 12C3.33326 10.395 3.75326 8.887 4.49026 7.582M12.3333 3C13.9295 2.99933 15.4972 3.42336 16.8754 4.22856C18.2537 5.03377 19.393 6.19117 20.1763 7.582M12.3333 3C10.737 2.99933 9.16933 3.42336 7.79106 4.22856C6.41279 5.03377 5.27356 6.19117 4.49026 7.582M20.1763 7.582C17.9989 9.46793 15.2138 10.5041 12.3333 10.5C9.33526 10.5 6.59326 9.4 4.49026 7.582" stroke-width="1.5" stroke-linecap="round" stroke-linejoin="round"/>
</svg>
