<svg width="152" height="24" viewBox="0 0 152 24" fill="none" xmlns="http://www.w3.org/2000/svg">
<path d="M42.0883 4.90625C43.5507 4.90625 44.9613 5.2357 46.1002 5.78056V8.92303C45.039 8.22611 43.5895 7.69392 42.1142 7.69392C39.3188 7.69392 37.4035 9.60728 37.4035 12.1669C37.4035 14.6884 39.2541 16.6778 42.2307 16.6778C43.7319 16.6778 45.1166 16.171 46.3202 15.3727V18.5405C45.0778 19.1867 43.5248 19.4782 42.0883 19.4782C37.4423 19.4782 34.2328 16.3357 34.2328 12.2175C34.2199 8.0994 37.4423 4.90625 42.0883 4.90625Z" fill="white"/>
<path d="M50.8239 12.1922C50.8239 8.07406 54.0722 4.90625 58.3687 4.90625C62.6524 4.90625 65.9136 8.07406 65.9136 12.1922C65.9136 16.3104 62.6653 19.4782 58.3687 19.4782C54.0851 19.4782 50.8239 16.3104 50.8239 12.1922ZM62.743 12.1922C62.743 9.69597 60.8665 7.71926 58.3687 7.71926C55.871 7.71926 53.9945 9.69597 53.9945 12.1922C53.9945 14.6884 55.871 16.6651 58.3687 16.6651C60.8665 16.6651 62.743 14.6884 62.743 12.1922Z" fill="white"/>
<path d="M70.3914 5.10889H74.442C80.1881 5.10889 83.2811 7.63046 83.2811 12.1668C83.2811 16.5003 80.4857 19.2626 74.2997 19.2626H70.3914V5.10889ZM74.442 16.5383C78.428 16.5383 80.1104 14.9544 80.1104 12.1668C80.1104 10.6842 79.5151 9.42977 78.428 8.69484C77.4056 7.99793 76.0338 7.8332 74.4162 7.8332H73.562V16.551H74.442V16.5383Z" fill="white"/>
<path d="M87.7589 5.10889H96.6756V7.82053H90.9296V10.5955H95.8732V13.1805H90.9296V16.5383H96.8956V19.25H87.7589V5.10889Z" fill="white"/>
<path d="M101.218 5.10889H104.389V16.5383H110.717V19.25H101.218V5.10889Z" fill="white"/>
<path d="M115.195 5.10889H118.365V19.25H115.195V5.10889Z" fill="white"/>
<path d="M127.502 7.8332H122.83V5.10889H135.345V7.82053H130.673V19.25H127.502V7.8332Z" fill="white"/>
<path d="M143.718 7.8332H139.046V5.10889H151.56V7.82053H146.889V19.25H143.718V7.8332Z" fill="white"/>
<path d="M22.8573 7.03498L21.3431 4.31067L16.8265 6.70553V5.80587C16.8265 4.34868 16.2959 3.1069 15.2477 2.06786C14.1994 1.04149 12.9182 0.521973 11.417 0.521973C9.94164 0.521973 8.67337 1.04149 7.62511 2.06786C6.56391 3.09423 6.04625 4.34868 6.04625 5.81854V12.4329L0.740234 15.2459L2.25439 17.9702L6.03331 15.9555V17.8689C6.03331 19.3261 6.55097 20.5678 7.59923 21.6069C8.64749 22.6459 9.91576 23.1528 11.417 23.1528C12.9052 23.1528 14.1735 22.6333 15.2347 21.6069C16.2959 20.5805 16.8136 19.3261 16.8136 17.8562V10.2408L22.8573 7.03498ZM9.37221 5.74252C9.37221 5.21033 9.56633 4.76683 9.95458 4.39937C10.3428 4.0319 10.7958 3.84183 11.3393 3.84183C11.8829 3.84183 12.3358 4.0319 12.7111 4.39937C13.0864 4.76683 13.2805 5.223 13.2805 5.74252V8.59354L9.37221 10.659V5.74252ZM13.2805 17.8435C13.2805 18.3757 13.0864 18.8192 12.7111 19.1867C12.3358 19.5541 11.8699 19.7442 11.3393 19.7442C10.7958 19.7442 10.3428 19.5541 9.95458 19.1867C9.56633 18.8192 9.37221 18.3631 9.37221 17.8435V14.1942L13.2805 12.1161V17.8435Z" fill="white"/>
</svg>
