<svg width="145" height="27" viewBox="0 0 145 27" fill="none" xmlns="http://www.w3.org/2000/svg">
<path d="M0 4.57143C0 2.0467 2.0467 0 4.57143 0H18.2857C20.8104 0 22.8571 2.0467 22.8571 4.57143V15.1722C22.8571 17.697 20.8104 19.7437 18.2857 19.7437H15.532C14.5379 19.7437 13.5708 20.0678 12.7773 20.6668L7.93366 24.3242C7.11287 24.944 5.95361 24.2532 6.09321 23.2342C6.34515 21.3953 4.91779 19.7437 3.06168 19.7437C1.37076 19.7437 0 18.3729 0 16.682V4.57143Z" fill="white"/>
<mask id="path-2-inside-1_493_5372" fill="white">
<path fill-rule="evenodd" clip-rule="evenodd" d="M10.5395 5.90354C10.1059 5.41945 9.48677 5.14282 8.8369 5.14282H4.57142C3.30905 5.14282 2.28571 6.16617 2.28571 7.42853V11.3789C2.28571 11.3789 2.28571 11.3789 2.28571 11.3789C2.28571 11.3789 2.28571 11.379 2.28571 11.379V15.0363C2.28571 16.2986 3.30906 17.322 4.57143 17.322H18.2857C19.5481 17.322 20.5714 16.2986 20.5714 15.0363V10.4648C20.5714 9.20248 19.5481 8.17913 18.2857 8.17913H13.599C12.9491 8.17913 12.3299 7.9025 11.8964 7.41841L10.5395 5.90354Z"/>
</mask>
<path fill-rule="evenodd" clip-rule="evenodd" d="M10.5395 5.90354C10.1059 5.41945 9.48677 5.14282 8.8369 5.14282H4.57142C3.30905 5.14282 2.28571 6.16617 2.28571 7.42853V11.3789C2.28571 11.3789 2.28571 11.3789 2.28571 11.3789C2.28571 11.3789 2.28571 11.379 2.28571 11.379V15.0363C2.28571 16.2986 3.30906 17.322 4.57143 17.322H18.2857C19.5481 17.322 20.5714 16.2986 20.5714 15.0363V10.4648C20.5714 9.20248 19.5481 8.17913 18.2857 8.17913H13.599C12.9491 8.17913 12.3299 7.9025 11.8964 7.41841L10.5395 5.90354Z" fill="black"/>
<path d="M11.8964 7.41841L11.4707 7.79966L11.8964 7.41841ZM4.57142 5.71425H8.8369V4.57139H4.57142V5.71425ZM2.85713 11.3789V7.42853H1.71428V11.3789H2.85713ZM2.85714 15.0363V11.379H1.71429V15.0363H2.85714ZM18.2857 16.7506H4.57143V17.8934H18.2857V16.7506ZM20 10.4648V15.0363H21.1429V10.4648H20ZM13.599 8.75056H18.2857V7.6077H13.599V8.75056ZM10.1139 6.28479L11.4707 7.79966L12.322 7.03716L10.9652 5.52229L10.1139 6.28479ZM13.599 7.6077C13.1116 7.6077 12.6472 7.40023 12.322 7.03716L11.4707 7.79966C12.0127 8.40477 12.7866 8.75056 13.599 8.75056V7.6077ZM21.1429 10.4648C21.1429 8.88689 19.8637 7.6077 18.2857 7.6077V8.75056C19.2325 8.75056 20 9.51807 20 10.4648H21.1429ZM18.2857 17.8934C19.8637 17.8934 21.1429 16.6142 21.1429 15.0363H20C20 15.983 19.2325 16.7506 18.2857 16.7506V17.8934ZM1.71429 15.0363C1.71429 16.6142 2.99347 17.8934 4.57143 17.8934V16.7506C3.62465 16.7506 2.85714 15.983 2.85714 15.0363H1.71429ZM2.25401 11.9495C1.95888 11.9331 1.71429 11.6899 1.71429 11.379H2.85714C2.85714 11.068 2.61255 10.8248 2.31741 10.8084L2.25401 11.9495ZM1.71428 11.3789C1.71428 11.6822 1.9512 11.9327 2.25401 11.9495L2.31741 10.8084C2.62021 10.8252 2.85713 11.0757 2.85713 11.3789H1.71428ZM8.8369 5.71425C9.3243 5.71425 9.78866 5.92172 10.1139 6.28479L10.9652 5.52229C10.4232 4.91718 9.64924 4.57139 8.8369 4.57139V5.71425ZM4.57142 4.57139C2.99346 4.57139 1.71428 5.85058 1.71428 7.42853H2.85713C2.85713 6.48176 3.62465 5.71425 4.57142 5.71425V4.57139Z" fill="black" mask="url(#path-2-inside-1_493_5372)"/>
<path d="M40.9077 12.8174H38.3292V17.2484C38.3292 18.3249 39.2555 18.425 40.9077 18.3249V21.7295C36.0011 22.2302 34.5741 20.7532 34.5741 17.2484V12.8174H32.5714V9.21249H34.5741V6.83426L38.3292 5.70773V9.21249H40.9077V12.8174Z" fill="white"/>
<path d="M52.1271 9.21249H55.8822V21.7295H52.1271V20.5529C51.301 21.5042 50.0743 22.08 48.397 22.08C45.1176 22.08 42.4139 19.2011 42.4139 15.471C42.4139 11.7409 45.1176 8.86202 48.397 8.86202C50.0743 8.86202 51.301 9.4378 52.1271 10.3891V9.21249ZM49.148 18.5251C50.8754 18.5251 52.1271 17.3485 52.1271 15.471C52.1271 13.5934 50.8754 12.4168 49.148 12.4168C47.4207 12.4168 46.169 13.5934 46.169 15.471C46.169 17.3485 47.4207 18.5251 49.148 18.5251Z" fill="white"/>
<path d="M62.32 12.8675C62.32 14.2944 68.4784 13.3431 68.4784 17.9744C68.4784 20.8533 65.975 22.08 63.2713 22.08C60.7679 22.08 58.8653 21.1287 57.889 19.1009L61.1434 17.2484C61.4689 18.1997 62.1698 18.7254 63.2713 18.7254C64.1725 18.7254 64.6232 18.45 64.6232 17.9494C64.6232 16.5725 58.4648 17.2985 58.4648 12.9676C58.4648 10.2389 60.7679 8.86202 63.3715 8.86202C65.3992 8.86202 67.2017 9.76324 68.2531 11.5407L65.0487 13.268C64.6983 12.6171 64.1976 12.1665 63.3715 12.1665C62.7206 12.1665 62.32 12.4168 62.32 12.8675Z" fill="white"/>
<path d="M82.6199 21.7295H78.3641L74.3587 16.197V21.7295H70.6035V4.20569H74.3587V14.6949L78.1138 9.21249H82.4947L77.9385 15.471L82.6199 21.7295Z" fill="white"/>
<path d="M86.8477 16.973C87.3233 18.2748 88.4749 18.7254 89.8518 18.7254C90.8782 18.7254 91.7544 18.3249 92.255 17.7741L95.2591 19.5015C94.0324 21.2038 92.1799 22.08 89.8017 22.08C85.5209 22.08 82.8673 19.2011 82.8673 15.471C82.8673 11.7409 85.571 8.86202 89.5263 8.86202C93.1813 8.86202 95.885 11.6909 95.885 15.471C95.885 15.9967 95.8349 16.4974 95.7348 16.973H86.8477ZM86.7726 14.1692H92.1549C91.7544 12.7173 90.6278 12.1915 89.5013 12.1915C88.0744 12.1915 87.1231 12.8925 86.7726 14.1692Z" fill="white"/>
<path d="M105.233 12.8174H102.655V17.2484C102.655 18.3249 103.581 18.425 105.233 18.3249V21.7295C100.327 22.2302 98.8998 20.7532 98.8998 17.2484V12.8174H96.8971V9.21249H98.8998V6.83426L102.655 5.70773V9.21249H105.233V12.8174Z" fill="white"/>
<path d="M110.72 16.973C111.196 18.2748 112.347 18.7254 113.724 18.7254C114.75 18.7254 115.627 18.3249 116.127 17.7741L119.131 19.5015C117.905 21.2038 116.052 22.08 113.674 22.08C109.393 22.08 106.74 19.2011 106.74 15.471C106.74 11.7409 109.443 8.86202 113.399 8.86202C117.054 8.86202 119.757 11.6909 119.757 15.471C119.757 15.9967 119.707 16.4974 119.607 16.973H110.72ZM110.645 14.1692H116.027C115.627 12.7173 114.5 12.1915 113.374 12.1915C111.947 12.1915 110.995 12.8925 110.645 14.1692Z" fill="white"/>
<path d="M125.37 16.973C125.845 18.2748 126.997 18.7254 128.374 18.7254C129.4 18.7254 130.276 18.3249 130.777 17.7741L133.781 19.5015C132.555 21.2038 130.702 22.08 128.324 22.08C124.043 22.08 121.389 19.2011 121.389 15.471C121.389 11.7409 124.093 8.86202 128.048 8.86202C131.703 8.86202 134.407 11.6909 134.407 15.471C134.407 15.9967 134.357 16.4974 134.257 16.973H125.37ZM125.295 14.1692H130.677C130.276 12.7173 129.15 12.1915 128.023 12.1915C126.596 12.1915 125.645 12.8925 125.295 14.1692Z" fill="white"/>
<path d="M140.542 11.4405C141.043 9.76324 142.72 8.96215 144.297 8.96215V13.2179C142.745 12.9676 140.542 13.5934 140.542 16.0718V21.7295H136.787V9.21249H140.542V11.4405Z" fill="white"/>
</svg>
